<?xml version="1.0" standalone="no"?><!DOCTYPE svg PUBLIC "-//W3C//DTD SVG 1.1//EN" "http://www.w3.org/Graphics/SVG/1.1/DTD/svg11.dtd"><svg xmlns:xlink="http://www.w3.org/1999/xlink" xmlns="http://www.w3.org/2000/svg" version="1.1" width="64" height="64" viewBox="0 0 64 64"><defs><style type="text/css"><![CDATA[
@font-face {
  font-family: "ifont";
  src: url("//at.alicdn.com/t/font_1442373896_4754455.eot?#iefix") format("embedded-opentype"), url("//at.alicdn.com/t/font_1442373896_4754455.woff") format("woff"), url("//at.alicdn.com/t/font_1442373896_4754455.ttf") format("truetype"), url("//at.alicdn.com/t/font_1442373896_4754455.svg#ifont") format("svg");
}

]]></style></defs><g class="transform-group"><g transform="scale(0.0625, 0.0625)"><path d="M512.034281 967.006961c-37.601386 0-68.227917-25.694195-68.227917-57.616232 0-31.648814 30.627555-57.343009 68.227917-57.343009 37.532825 0 68.097958 25.694195 68.097958 57.343009C580.132238 941.311743 549.567106 967.006961 512.034281 967.006961L512.034281 967.006961zM512.034281 884.236839c-16.434298 0-29.757744 11.361769-29.757744 25.15389 0 14.066367 13.323447 25.15696 29.757744 25.15696 16.366759 0 29.757744-11.090593 29.757744-25.15696C541.792025 895.597585 528.40104 884.236839 512.034281 884.236839L512.034281 884.236839zM269.405311 828.246641 269.405311 166.748768l485.196541 0L754.601852 828.246641 269.405311 828.246641 269.405311 828.246641zM716.1941 199.070918 307.814086 199.070918l0 596.71031 408.380014 0L716.1941 199.070918 716.1941 199.070918zM729.64853 1010.55478 294.352493 1010.55478c-54.092989 0-98.121761-37.051871-98.121761-82.767052L196.230732 96.086405c0-45.580105 44.027749-82.642209 98.121761-82.642209l435.296037 0c54.097082 0 98.119715 37.062104 98.119715 82.642209l0 831.702346C827.768245 973.502909 783.745612 1010.55478 729.64853 1010.55478L729.64853 1010.55478zM789.358447 96.086405c0-27.726481-26.777877-50.319036-59.709917-50.319036L294.352493 45.76737c-32.93511 0-59.71094 22.592554-59.71094 50.319036l0 831.702346c0 27.859511 26.77583 50.311873 59.71094 50.311873l435.296037 0c32.93204 0 59.709917-22.452361 59.709917-50.311873L789.358447 96.086405 789.358447 96.086405zM557.208133 122.728182l-90.415242 0c-7.163143 0-13.049201-6.423293-13.049201-14.403035 0-7.91425 5.886057-14.404058 13.049201-14.404058l90.415242 0c7.169283 0 12.983709 6.489808 12.983709 14.404058C570.190819 116.304889 564.376393 122.728182 557.208133 122.728182L557.208133 122.728182z" fill="#f75f5e"></path></g></g></svg>