<?xml version="1.0" standalone="no"?><!DOCTYPE svg PUBLIC "-//W3C//DTD SVG 1.1//EN" "http://www.w3.org/Graphics/SVG/1.1/DTD/svg11.dtd"><svg xmlns:xlink="http://www.w3.org/1999/xlink" xmlns="http://www.w3.org/2000/svg" version="1.1" width="200" height="200" viewBox="0 0 200 200"><defs><style type="text/css"><![CDATA[
@font-face {
  font-family: "ifont";
  src: url("//at.alicdn.com/t/font_1442373896_4754455.eot?#iefix") format("embedded-opentype"), url("//at.alicdn.com/t/font_1442373896_4754455.woff") format("woff"), url("//at.alicdn.com/t/font_1442373896_4754455.ttf") format("truetype"), url("//at.alicdn.com/t/font_1442373896_4754455.svg#ifont") format("svg");
}

]]></style></defs><g class="transform-group"><g transform="scale(0.1953125, 0.1953125)"><path d="M512.548 683.125c139.923 0 253.655-111.438 253.655-248.353v-121.413c0-136.906-113.732-248.337-253.655-248.337-139.777 0-253.67 111.432-253.67 248.337v121.413c0 136.915 113.893 248.353 253.67 248.353zM299.141 313.36c0-115.3 95.772-209.005 213.407-209.005 117.782 0 213.553 93.704 213.553 209.005v121.413c0 115.309-95.772 209.015-213.553 209.015-117.635 0-213.407-93.706-213.407-209.015v-121.413zM857.503 656.154l-97.424-26.522c-10.623-2.981-21.701 3.128-24.696 13.56-2.998 10.574 3.286 21.458 13.926 24.28l97.129 26.667c48.48 13.558 73.018 36.050 73.018 66.733v92.527c0 36.485-30.224 66.137-67.492 66.137h-682.428c-37.268 0-67.493-29.652-67.493-66.137v-92.527c0-11.318 0-46.030 72.726-66.733l101.924-27.568c10.772-2.969 17.057-13.705 14.060-24.267-2.981-10.448-14.060-16.544-24.699-13.704l-102.216 27.698c-84.388 23.976-102.057 70.164-102.057 104.573v92.527c0 58.248 48.331 105.475 107.756 105.475h682.426c59.423 0 107.756-47.227 107.756-105.475v-92.527c0.001-34.553-17.671-80.889-102.216-104.717z" fill="#F65150"></path></g></g></svg>